<svg width="65" height="18" viewBox="0 0 65 18" fill="none" xmlns="http://www.w3.org/2000/svg">
    <path d="M0.583984 17H10.76V14H3.99198V0.991996H0.583984V17Z" fill="#263238" />
    <path
        d="M11.7222 9.008C11.7222 13.832 15.2502 17.288 20.0742 17.288C24.9222 17.288 28.4502 13.832 28.4502 9.008C28.4502 4.184 24.9222 0.727997 20.0742 0.727997C15.2502 0.727997 11.7222 4.184 11.7222 9.008ZM24.9462 9.008C24.9462 11.984 23.0262 14.264 20.0742 14.264C17.1222 14.264 15.2262 11.984 15.2262 9.008C15.2262 6.008 17.1222 3.752 20.0742 3.752C23.0262 3.752 24.9462 6.008 24.9462 9.008Z"
        fill="#263238" />
    <path
        d="M30.0738 9.008C30.0738 14.048 33.9138 17.312 38.5938 17.312C41.4978 17.312 43.7778 16.112 45.4098 14.288V8.168H37.7778V11.096H42.0498V13.04C41.3538 13.664 40.0578 14.264 38.5938 14.264C35.6898 14.264 33.5778 12.032 33.5778 9.008C33.5778 5.984 35.6898 3.752 38.5938 3.752C40.2738 3.752 41.6418 4.64 42.3858 5.768L45.2178 4.232C43.9938 2.336 41.9058 0.727997 38.5938 0.727997C33.9138 0.727997 30.0738 3.944 30.0738 9.008Z"
        fill="#263238" />
    <path
        d="M47.3472 9.008C47.3472 13.832 50.8752 17.288 55.6992 17.288C60.5472 17.288 64.0752 13.832 64.0752 9.008C64.0752 4.184 60.5472 0.727997 55.6992 0.727997C50.8752 0.727997 47.3472 4.184 47.3472 9.008ZM60.5712 9.008C60.5712 11.984 58.6512 14.264 55.6992 14.264C52.7472 14.264 50.8512 11.984 50.8512 9.008C50.8512 6.008 52.7472 3.752 55.6992 3.752C58.6512 3.752 60.5712 6.008 60.5712 9.008Z"
        fill="#263238" />
</svg>